<?xml version="1.0" standalone="no"?>
<!DOCTYPE svg PUBLIC "-//W3C//DTD SVG 20010904//EN"
 "http://www.w3.org/TR/2001/REC-SVG-20010904/DTD/svg10.dtd">
<svg version="1.0" xmlns="http://www.w3.org/2000/svg"
 width="64.000000pt" height="64.000000pt" viewBox="0 0 64.000000 64.000000"
 preserveAspectRatio="xMidYMid meet">

<g transform="translate(0.000000,64.000000) scale(0.100000,-0.100000)"
fill="#000000" stroke="none">
<path d="M180 630 c-8 -5 -24 -10 -34 -10 -11 0 -41 -23 -67 -51 -40 -43 -48
-58 -54 -105 -7 -61 5 -90 50 -120 20 -13 38 -15 90 -9 66 7 66 7 60 -17 -7
-26 27 -68 39 -49 4 5 2 12 -4 16 -5 3 -10 21 -10 39 0 29 -4 34 -27 39 -15 3
-50 3 -78 0 -44 -4 -53 -2 -74 21 -21 22 -23 32 -18 78 5 43 12 58 37 78 17
14 30 30 30 36 0 15 15 21 73 29 39 6 46 4 51 -12 10 -30 86 -59 86 -33 0 5
19 8 43 7 35 -3 42 -6 43 -25 1 -12 8 -30 16 -40 9 -9 19 -27 22 -39 10 -33
64 -75 87 -68 30 10 22 -11 -26 -65 -42 -47 -45 -55 -45 -105 0 -44 -4 -56
-20 -65 -12 -7 -20 -21 -20 -38 0 -32 -6 -41 -44 -70 -54 -42 -63 -33 -112
117 -3 11 -8 11 -16 3 -9 -9 -4 -30 17 -84 40 -103 55 -109 128 -53 31 24 47
45 52 67 4 18 16 41 26 51 14 13 19 32 19 71 0 45 4 56 30 81 34 33 64 91 56
111 -3 9 -15 12 -33 9 -18 -4 -35 1 -48 13 -22 20 -63 96 -67 127 -3 16 -14
21 -63 27 -38 5 -61 4 -63 -2 -6 -18 -31 -11 -43 13 -20 37 -56 48 -89 27z"/>
<path d="M260 220 c0 -5 5 -10 10 -10 6 0 10 5 10 10 0 6 -4 10 -10 10 -5 0
-10 -4 -10 -10z"/>
<path d="M559 197 c-15 -12 -29 -34 -33 -49 -3 -14 -8 -33 -12 -41 -7 -19 22
-48 41 -41 18 7 65 87 65 111 0 18 -18 43 -29 43 -4 -1 -18 -11 -32 -23z m17
-66 c-9 -16 -21 -33 -27 -37 -17 -10 0 58 20 77 23 22 27 -1 7 -40z"/>
</g>
</svg>
