<?xml version="1.0" standalone="no"?>
<!DOCTYPE svg PUBLIC "-//W3C//DTD SVG 20010904//EN"
 "http://www.w3.org/TR/2001/REC-SVG-20010904/DTD/svg10.dtd">
<svg version="1.0" xmlns="http://www.w3.org/2000/svg"
 width="64.000000pt" height="64.000000pt" viewBox="0 0 64.000000 64.000000"
 preserveAspectRatio="xMidYMid meet">

<g transform="translate(0.000000,64.000000) scale(0.100000,-0.100000)"
fill="#000000" stroke="none">
<path d="M275 631 c-27 -12 -61 -51 -70 -78 -4 -16 -14 -23 -30 -23 -27 0 -55
-34 -55 -67 0 -21 -5 -23 -49 -23 -29 0 -53 -6 -60 -14 -8 -9 -11 -75 -9 -217
l3 -204 315 0 315 0 3 204 c2 142 -1 208 -9 217 -6 8 -30 14 -52 14 -46 0 -40
-16 8 -22 l30 -3 3 -198 2 -197 -50 0 c-43 0 -50 3 -50 20 0 16 7 20 30 20 28
0 30 2 30 40 0 38 -2 40 -30 40 -23 0 -30 4 -30 20 0 16 7 20 30 20 28 0 30 2
30 40 0 38 -2 40 -30 40 -23 0 -30 4 -30 20 0 16 7 20 31 20 29 0 30 1 27 43
-3 38 -6 42 -30 45 -26 3 -28 6 -28 50 0 56 -21 92 -55 92 -18 0 -26 7 -31 24
-14 58 -103 101 -159 77z m94 -25 c67 -35 65 -143 -4 -174 -51 -23 -107 -7
-131 39 -47 91 44 182 135 135z m-163 -120 c3 -13 19 -37 35 -52 25 -24 39
-29 79 -29 40 0 54 5 79 29 16 15 32 39 35 52 7 28 50 34 60 8 3 -9 6 -119 6
-245 l0 -229 -40 0 -40 0 0 79 c0 44 4 83 10 86 6 3 10 17 10 31 l0 24 -120 0
-120 0 0 -24 c0 -14 5 -28 10 -31 6 -3 10 -22 10 -41 0 -21 4 -33 10 -29 6 3
10 19 10 36 0 27 3 29 35 29 l35 0 0 -80 0 -80 -35 0 c-32 0 -35 2 -35 30 0
17 -4 30 -10 30 -5 0 -10 -13 -10 -30 0 -28 -2 -30 -40 -30 l-40 0 0 229 c0
126 3 236 6 245 10 26 53 20 60 -8z m-86 -80 c0 -9 -12 -16 -27 -18 -25 -3
-28 -7 -31 -45 -3 -42 -2 -43 27 -43 24 0 31 -4 31 -20 0 -16 -7 -20 -30 -20
-28 0 -30 -2 -30 -40 0 -38 2 -40 30 -40 23 0 30 -4 30 -20 0 -16 -7 -20 -30
-20 -28 0 -30 -2 -30 -40 0 -38 2 -40 30 -40 23 0 30 -4 30 -20 0 -17 -7 -20
-50 -20 l-50 0 0 193 c0 107 3 197 7 200 3 4 26 7 50 7 31 0 43 -4 43 -14z m0
-61 c0 -18 -5 -25 -20 -25 -15 0 -20 7 -20 25 0 18 5 25 20 25 15 0 20 -7 20
-25z m440 0 c0 -18 -5 -25 -20 -25 -15 0 -20 7 -20 25 0 18 5 25 20 25 15 0
20 -7 20 -25z m-440 -125 c0 -13 -7 -20 -20 -20 -13 0 -20 7 -20 20 0 13 7 20
20 20 13 0 20 -7 20 -20z m440 0 c0 -13 -7 -20 -20 -20 -13 0 -20 7 -20 20 0
13 7 20 20 20 13 0 20 -7 20 -20z m-140 -10 c0 -6 -40 -10 -100 -10 -60 0
-100 4 -100 10 0 6 40 10 100 10 60 0 100 -4 100 -10z m-20 -110 l0 -80 -35 0
-35 0 0 80 0 80 35 0 35 0 0 -80z m-280 -5 c0 -18 -5 -25 -20 -25 -15 0 -20 7
-20 25 0 18 5 25 20 25 15 0 20 -7 20 -25z m440 0 c0 -18 -5 -25 -20 -25 -15
0 -20 7 -20 25 0 18 5 25 20 25 15 0 20 -7 20 -25z"/>
<path d="M297 594 c-4 -4 -7 -15 -7 -25 0 -11 -9 -19 -22 -21 -32 -4 -33 -52
-1 -56 14 -2 23 -11 25 -25 2 -16 10 -22 28 -22 18 0 26 6 28 22 2 14 11 23
25 25 31 4 31 52 0 56 -14 2 -23 11 -25 25 -3 22 -36 35 -51 21z m33 -39 c0
-20 5 -25 25 -25 14 0 25 -4 25 -10 0 -5 -11 -10 -25 -10 -20 0 -25 -5 -25
-25 0 -14 -4 -25 -10 -25 -5 0 -10 11 -10 25 0 20 -5 25 -25 25 -14 0 -25 5
-25 10 0 6 11 10 25 10 20 0 25 5 25 25 0 14 5 25 10 25 6 0 10 -11 10 -25z"/>
<path d="M180 320 l0 -40 60 0 60 0 0 40 0 40 -60 0 -60 0 0 -40z m100 0 c0
-17 -7 -20 -40 -20 -33 0 -40 3 -40 20 0 17 7 20 40 20 33 0 40 -3 40 -20z"/>
<path d="M340 320 l0 -40 60 0 60 0 0 40 0 40 -60 0 -60 0 0 -40z m100 0 c0
-17 -7 -20 -40 -20 -33 0 -40 3 -40 20 0 17 7 20 40 20 33 0 40 -3 40 -20z"/>
<path d="M274 109 c-3 -6 -1 -16 5 -22 8 -8 11 -5 11 11 0 24 -5 28 -16 11z"/>
<path d="M350 100 c0 -19 3 -21 12 -12 9 9 9 15 0 24 -9 9 -12 7 -12 -12z"/>
</g>
</svg>
