<?xml version="1.0" standalone="no"?>
<!DOCTYPE svg PUBLIC "-//W3C//DTD SVG 20010904//EN"
 "http://www.w3.org/TR/2001/REC-SVG-20010904/DTD/svg10.dtd">
<svg version="1.0" xmlns="http://www.w3.org/2000/svg"
 width="64.000000pt" height="64.000000pt" viewBox="0 0 64.000000 64.000000"
 preserveAspectRatio="xMidYMid meet">

<g transform="translate(0.000000,64.000000) scale(0.100000,-0.100000)"
fill="#000000" stroke="none">
<path d="M390 633 c-8 -3 -26 -15 -40 -28 -36 -31 -122 -48 -171 -34 -32 10
-42 9 -62 -4 -28 -18 -42 -59 -28 -85 13 -25 -28 -149 -51 -155 -16 -5 -18
-18 -18 -116 0 -72 -4 -111 -11 -111 -6 0 -9 -12 -7 -27 2 -23 9 -29 33 -31
16 -2 40 -12 53 -23 32 -24 63 -24 95 1 18 14 40 20 77 20 37 0 59 -6 77 -20
14 -11 35 -20 47 -20 12 0 32 9 44 20 12 11 30 20 41 20 23 0 32 21 25 58 -4
20 0 33 16 47 21 19 22 19 39 -4 l18 -24 37 48 c43 57 45 87 9 123 -17 17 -34
50 -44 87 -8 33 -17 65 -19 70 -2 6 0 26 4 46 19 91 -76 174 -164 142z m111
-39 c28 -25 42 -76 29 -108 -14 -37 -91 -137 -100 -131 -5 3 -29 33 -54 66
-33 43 -46 70 -46 94 0 35 31 81 64 96 29 12 85 3 107 -17z m-310 -55 c22 -22
19 -48 -10 -85 -22 -28 -32 -26 -58 9 -28 38 -29 51 -3 77 25 25 45 25 71 -1z
m121 -28 c4 -39 15 -61 59 -119 30 -39 57 -71 61 -71 4 -1 26 23 49 53 24 30
46 53 50 50 4 -2 13 -27 19 -56 11 -42 10 -53 0 -56 -7 -3 -21 -13 -32 -24
-17 -17 -19 -29 -15 -68 4 -34 2 -52 -7 -59 -11 -9 -16 -1 -26 36 -16 66 -24
73 -86 73 -50 0 -53 1 -56 28 l-3 27 -123 3 -122 3 6 27 c10 41 23 72 30 72 3
0 13 -9 23 -21 l17 -21 25 33 c39 51 51 78 44 99 -5 15 0 21 22 26 15 3 33 7
38 9 6 2 13 4 16 4 4 1 9 -21 11 -48z m-192 -236 c0 -36 12 -43 39 -26 10 6
25 4 43 -5 l28 -15 0 41 0 40 40 0 40 0 0 -105 0 -105 -53 0 c-41 0 -58 5 -72
20 -11 12 -31 20 -50 20 -19 0 -39 -8 -50 -20 -37 -41 -45 -27 -45 85 l0 105
40 0 c39 0 40 -1 40 -35z m90 17 c0 -14 -8 -18 -35 -19 -28 -1 -35 3 -35 18 0
15 7 19 35 19 27 0 35 -4 35 -18z m395 -22 c20 -22 15 -52 -15 -90 l-20 -25
-25 30 c-29 35 -33 80 -7 94 26 16 47 13 67 -9z m-170 -29 c3 -5 -9 -11 -27
-13 -28 -2 -33 -7 -33 -28 0 -22 5 -26 39 -30 32 -4 41 -10 49 -33 12 -38 2
-45 -28 -17 -20 19 -32 22 -65 17 l-40 -5 0 59 0 59 49 0 c28 0 52 -4 56 -9z
m10 -41 c4 -6 -7 -10 -24 -10 -17 0 -31 5 -31 10 0 6 11 10 24 10 14 0 28 -4
31 -10z m-270 -104 c34 -51 -39 -103 -77 -56 -22 27 -23 44 -2 64 23 24 61 20
79 -8z m243 12 c22 -22 14 -67 -14 -80 -45 -21 -87 21 -66 66 13 28 58 36 80
14z m-358 -38 c0 -5 -9 -10 -20 -10 -11 0 -20 5 -20 10 0 6 9 10 20 10 11 0
20 -4 20 -10z m250 0 c0 -5 -22 -10 -50 -10 -27 0 -50 5 -50 10 0 6 23 10 50
10 28 0 50 -4 50 -10z m160 0 c0 -5 -4 -10 -10 -10 -5 0 -10 5 -10 10 0 6 5
10 10 10 6 0 10 -4 10 -10z"/>
<path d="M379 571 c-34 -34 -37 -68 -9 -104 26 -33 63 -41 99 -23 55 29 60
105 9 140 -34 24 -66 19 -99 -13z m91 -9 c26 -21 30 -66 7 -89 -23 -23 -68
-19 -89 7 -25 31 -23 55 8 79 33 26 45 26 74 3z"/>
<path d="M136 525 c-20 -20 -10 -45 19 -45 29 0 39 25 19 45 -9 8 -17 15 -19
15 -2 0 -10 -7 -19 -15z"/>
<path d="M250 360 c0 -5 5 -10 10 -10 6 0 10 5 10 10 0 6 -4 10 -10 10 -5 0
-10 -4 -10 -10z"/>
<path d="M290 360 c0 -5 5 -10 10 -10 6 0 10 5 10 10 0 6 -4 10 -10 10 -5 0
-10 -4 -10 -10z"/>
<path d="M330 360 c0 -5 5 -10 10 -10 6 0 10 5 10 10 0 6 -4 10 -10 10 -5 0
-10 -4 -10 -10z"/>
<path d="M544 255 c-9 -23 3 -45 26 -45 25 0 37 25 20 45 -16 19 -39 19 -46 0z
m31 -15 c3 -5 1 -10 -4 -10 -6 0 -11 5 -11 10 0 6 2 10 4 10 3 0 8 -4 11 -10z"/>
<path d="M106 84 c-9 -22 17 -49 39 -40 10 3 15 15 13 28 -4 29 -42 37 -52 12z
m34 -14 c0 -5 -2 -10 -4 -10 -3 0 -8 5 -11 10 -3 6 -1 10 4 10 6 0 11 -4 11
-10z"/>
<path d="M354 85 c-4 -9 0 -23 9 -32 21 -21 49 -9 45 19 -4 28 -45 38 -54 13z
m36 -15 c0 -5 -2 -10 -4 -10 -3 0 -8 5 -11 10 -3 6 -1 10 4 10 6 0 11 -4 11
-10z"/>
</g>
</svg>
