<?xml version="1.0" standalone="no"?>
<!DOCTYPE svg PUBLIC "-//W3C//DTD SVG 20010904//EN"
 "http://www.w3.org/TR/2001/REC-SVG-20010904/DTD/svg10.dtd">
<svg version="1.0" xmlns="http://www.w3.org/2000/svg"
 width="64.000000pt" height="64.000000pt" viewBox="0 0 64.000000 64.000000"
 preserveAspectRatio="xMidYMid meet">

<g transform="translate(0.000000,64.000000) scale(0.100000,-0.100000)"
fill="#000000" stroke="none">
<path d="M543 628 c-4 -7 -8 -28 -8 -47 l0 -35 -90 0 c-76 -1 -95 -4 -120 -23
-62 -44 -313 -308 -320 -336 -11 -43 3 -78 54 -128 50 -51 85 -65 129 -54 34
8 325 295 348 343 17 37 15 105 -5 125 -18 18 -23 1 -12 -39 9 -33 7 -45 -10
-82 -27 -54 -43 -61 -75 -32 -18 18 -24 20 -24 8 0 -9 7 -21 15 -28 8 -7 15
-18 15 -24 0 -15 -172 -186 -186 -186 -7 0 -17 7 -24 15 -7 8 -19 15 -28 15
-12 0 -11 -5 6 -23 12 -13 22 -27 22 -32 0 -17 -36 -34 -73 -35 -31 0 -45 7
-82 45 -38 37 -45 51 -45 82 1 38 18 73 37 73 5 0 22 -13 38 -30 15 -16 32
-27 37 -24 6 4 -4 21 -21 38 -17 18 -31 36 -31 42 0 13 173 184 186 184 6 0
23 -13 39 -30 15 -16 32 -27 37 -24 6 4 -4 21 -21 38 -17 18 -31 37 -31 43 0
6 16 21 36 34 42 25 95 27 131 4 21 -14 24 -14 29 0 6 14 9 14 26 -2 17 -15
21 -15 28 -3 8 13 10 12 10 -2 0 -21 11 -23 28 -6 16 16 15 28 -2 28 -8 0 -18
5 -22 11 -5 9 1 10 20 5 56 -14 73 30 29 76 -28 30 -57 36 -70 16z m61 -40 c5
-9 7 -20 3 -25 -11 -10 -41 11 -45 31 -5 23 26 18 42 -6z"/>
<path d="M222 333 c-41 -16 -32 -83 11 -83 46 0 66 59 28 80 -11 5 -21 10 -23
9 -2 0 -9 -3 -16 -6z m33 -43 c0 -22 -29 -18 -33 3 -3 14 1 18 15 15 10 -2 18
-10 18 -18z"/>
<path d="M286 261 c-4 -5 2 -14 11 -20 15 -9 13 -10 -14 -11 -37 0 -41 -9 -15
-33 23 -21 32 -21 32 -3 0 7 9 16 21 19 28 8 23 51 -8 55 -11 2 -24 -1 -27 -7z"/>
</g>
</svg>
